<svg xmlns="http://www.w3.org/2000/svg" viewBox="0 0 1000 650">
  <defs>
    <linearGradient id="bg" x1="0" x2="1">
      <stop offset="0" stop-color="#050506"/>
      <stop offset=".52" stop-color="#14161c"/>
      <stop offset="1" stop-color="#060607"/>
    </linearGradient>
    <linearGradient id="metal" x1="0" y1="0" x2="1" y2="1">
      <stop offset="0" stop-color="#24272f"/>
      <stop offset=".45" stop-color="#0a0b0f"/>
      <stop offset="1" stop-color="#4f535b"/>
    </linearGradient>
    <radialGradient id="glow" cx=".62" cy=".42" r=".6">
      <stop offset="0" stop-color="#ff1828" stop-opacity=".55"/>
      <stop offset=".38" stop-color="#ff1828" stop-opacity=".16"/>
      <stop offset="1" stop-color="#ff1828" stop-opacity="0"/>
    </radialGradient>
    <pattern id="carbon" width="24" height="24" patternUnits="userSpaceOnUse" patternTransform="rotate(45)">
      <rect width="12" height="24" fill="#11131a"/>
      <rect x="12" width="12" height="24" fill="#07080b"/>
    </pattern>
    <filter id="blur"><feGaussianBlur stdDeviation="18"/></filter>
  </defs>
  <rect width="1000" height="650" fill="url(#bg)"/>
  <rect width="1000" height="650" fill="url(#carbon)" opacity=".36"/>
  <circle cx="650" cy="340" r="360" fill="url(#glow)"/>
  <g opacity=".28" stroke="#ff1828" stroke-width="2">
    <path d="M90 120 H390 M610 120 H910 M130 560 H470 M600 560 H890"/>
    <path d="M120 90 V560 M880 95 V560"/>
  </g>
  <g filter="url(#blur)" opacity=".45"><ellipse cx="500" cy="535" rx="350" ry="40" fill="#ff1828"/></g>

        <rect x="285" y="260" width="270" height="220" rx="28" fill="url(#metal)" stroke="#ff1828" stroke-width="4"/>
        <rect x="555" y="305" width="150" height="130" rx="20" fill="#0d1017" stroke="#d9d9d9" stroke-width="4"/>
        <g fill="#ff1828">
          <circle cx="345" cy="335" r="18"/><circle cx="420" cy="335" r="18"/><circle cx="495" cy="335" r="18"/>
          <circle cx="345" cy="410" r="18"/><circle cx="420" cy="410" r="18"/><circle cx="495" cy="410" r="18"/>
        </g>

  <text x="56" y="86" font-family="Arial Black,Arial" font-size="42" fill="#fff">CONNECTORS</text>
  <text x="58" y="132" font-family="Arial" font-size="24" fill="#c6c8d0">ECU Plugs • Cables • Adapters</text>
</svg>
